# xmcd
#
# Track frame offsets: 
#        150
#        16690
#        31642
#        47482
#        64662
#        84715
#        99057
#        115610
#        128750
#        142812
#
# Disc length: 2073 seconds
#
# Revision: 2
# Processed by: cddbd v1.5.2PL0 Copyright (c) Steve Scherf et al.
# Submitted via: ExactAudioCopy v0.95b4
#
DISCID=6608170a
DTITLE=Cash, Rosanne - Rhythm And Romance
DYEAR=1985
DGENRE=Country
TTITLE0=Hold On
TTITLE1=I Don't Know Why You Don't Want Me
TTITLE2=Never Be You
TTITLE3=Second To None
TTITLE4=Halfway House
TTITLE5=Pink Bedroom
TTITLE6=Never Alone
TTITLE7=My Old Man
TTITLE8=Never Gonna Hurt
TTITLE9=Closing Time
EXTD=
EXTT0=
EXTT1=
EXTT2=
EXTT3=
EXTT4=
EXTT5=
EXTT6=
EXTT7=
EXTT8=
EXTT9=
PLAYORDER=
